<?xml version="1.0" encoding="UTF-8"?>
<svg id="Layer_1" xmlns="http://www.w3.org/2000/svg" version="1.1" viewBox="0 0 586.1 135.94">
  <path d="M567.11,59.72v-15.98h18.98v89.91h-17.98v-16.98c-8.01,9.26-15.2,17.8-28.43,19.02-61.96,5.75-64.6-88.69-11.07-92.99,17.47-1.4,27.94,3.32,38.5,17.02ZM532.89,57.96c-30.64,4.82-31.08,57.36.84,61.62,46.72,6.23,44.4-68.73-.84-61.62Z"/>
  <path d="M90.3,93.63H18.37c.9,13.22,8.23,24.37,21.93,26.53,11.18,1.76,26.05-1.78,28.02-14.54h19.98c-5.63,22.52-26.25,31.97-48.44,29.95-56.43-5.13-54.79-103.32,16.71-93.63,15.85,2.15,33.73,21.09,33.73,37.21v14.49ZM70.32,81.64c-.19-34.93-49.76-33.3-51.95,0h51.95Z"/>
  <path d="M166.23,68.65h-17.98c.2-17.37-30.42-16.89-29.93-1.6.38,11.69,26.64,15.28,35.81,20.2,21.64,11.58,16.8,38.05-4.9,45.82-23.71,8.49-50.84-1.98-51.93-29.45h17.98c-.79,8.63,7.23,17.02,15.59,17.92,9.92,1.06,22.05-7.54,16.25-18.3-6.26-11.63-45.77-10.03-47.75-34.22-2.89-35.32,67.29-38.23,66.85-.36Z"/>
  <polygon points="368.31 45.86 396.78 114.8 425.75 45.86 445.23 45.86 403.83 135.83 389.64 135.83 347.33 45.86 368.31 45.86"/>
  <path d="M208.18,18.08v26.97h23.98v14.99h-23.98v46.45c0,.35,2.18,5.78,2.57,6.42,2.87,4.71,9.13,6.83,14.41,6.07l-8.05,16.96c-10.45-1.14-19.59-5.12-24.45-14.93-.75-1.52-3.46-8.45-3.46-9.53v-51.45h-17.98v-14.99h17.98v-26.97h18.98Z"/>
  <rect x="456.22" y="46.03" width="17.98" height="89.91"/>
  <circle cx="465.21" cy="16.92" r="13.2"/>
  <g>
    <path fill="#01a9f0" d="M349.24,121.35l-48.15-90.53-8.56,16.1,19.67,37.1,19.91,37.34h17.13ZM284.34,31.51L301.08,0l36.12,67.92,36.12,67.92h-49.91l-7.69-14.48-31.39-59.02-8.15-15.42,8.15-15.4Z"/>
    <path  d="M266.9,95.08l-13.95,26.27h27.9l-13.95-26.27ZM236.55,121.31l22.14-41.59,6.29-11.8,1.92-3.61,1.92,3.61,6.28,11.8,22.17,41.63,7.67,14.48h-76.07l7.69-14.52Z"/>
  </g>
</svg>