<?xml version="1.0" encoding="UTF-8"?>
<svg id="Layer_1" xmlns="http://www.w3.org/2000/svg" version="1.1" viewBox="0 0 638.22 155.82">

  <path class="st3" d="M253.72,155.82l-9.12-17.77c-1.17-.9-10.33,16.13-11.15,17.72-61.14-7.24-90.58-80.36-50.25-128.01,34.58-40.86,101.25-35.9,128.48,10.27,29.01,49.18-1.54,111.07-57.96,117.79Z"/>
  <path class="st3" d="M82.87,145.99C54.4,100.23,28.87,52.62.78,6.62l-.78-3.69h76.38l10.5,18.88,12.62-18.77c2-.03,3.78.92,5.79.94,21.87.17,44.15.57,65.99,0,1.69-.04,2.93-.3,4.43-1.05.85,1.12-5.62,11.5-6.81,13.58-24.19,42.56-50.15,84.59-75.06,126.51-1.91,3.53-8.24,5.89-10.98,2.98Z"/>
  <path class="st2" d="M480.25,60.55c1.69.28,9.6-.39,9.99,0,.7.69-1.48,9.18,1.48,7.95,1.45-.6,4.21-4.72,6-5.96,9.05-6.25,23.81-4.43,28.97,5.98,1.2,0,5.37-5.14,7.55-6.39,8.05-4.63,22.37-4.51,28.32,3.46,1.77,2.36,4.55,10.66,4.55,13.36v45.21h-11.98v-49.18c0-4-8.69-6.52-12.19-6.25-4.86.38-13.77,6.06-13.77,11.22v44.21h-10.98v-44.21c0-.32-1.48-5.57-1.76-6.19-3.56-7.65-14.99-5.73-20.25-.81-1.34,1.25-4.95,7.66-4.95,8.99v42.23h-10.98v-63.59Z"/>
  <path class="st2" d="M353.45,36.7v31.79c9.35-12.68,34.22-14.04,40.15,2.27.35.96,1.79,5.72,1.79,6.17v47.19h-10.98v-44.21c0-1.7-2.95-8.13-4.61-9.32-7.94-5.67-20.99-.65-24.56,8.11-.31.77-1.78,5.85-1.78,6.18v39.25h-10.98V36.7h10.98Z"/>
  <path class="st0" d="M93.85,143.01c-.8,1.35-4.52,10.57-5.01,10.93-2.19,1.61-5.05-6.46-5.98-7.95,3.73-1.43,7.38-.74,10.98-2.98Z"/>
  <path class="st1" d="M638,96.32c4.62-52.18-65.13-48.94-58.8,4.36,3.89,32.75,51.22,35.66,57.8,3.59-2.88.52-7.93-.73-10.37-.07-.53.14-1.43,3.95-2.6,5.54-11.68,15.9-35.37,6.13-32.96-13.42h46.93ZM627.02,87.37h-35.94c.91-25.13,34.93-25.69,35.94,0Z"/>
  <path class="st1" d="M432.08,58.82c-35.43,4.76-34.32,70.1,5.69,68.31,40.64-1.81,40.6-74.53-5.69-68.31ZM455.28,97.8c-1.4,13.91-8.86,21.57-23.39,19.32-18.76-2.9-17.54-45.01-.83-48.39,21.18-4.29,25.99,11.56,24.22,29.07Z"/>
</svg>