<?xml version="1.0" encoding="UTF-8" standalone="no"?>
<!DOCTYPE svg PUBLIC "-//W3C//DTD SVG 1.1//EN" "http://www.w3.org/Graphics/SVG/1.1/DTD/svg11.dtd">
<svg xmlns="http://www.w3.org/2000/svg" version="1.1" viewBox="0.00 0.00 536.00 170.00">

<g fill="#48a9ed">
<path d="
  M 313.69 113.97
  C 314.72 102.99 298.15 99.46 290.60 96.73
  Q 280.78 93.17 277.54 91.25
  C 262.47 82.29 259.69 65.52 263.69 49.63
  C 268.80 29.36 289.08 19.76 309.26 21.45
  Q 326.44 22.90 341.46 31.18
  A 0.62 0.61 -62.6 0 1 341.71 31.99
  L 329.83 55.82
  A 0.88 0.88 0.0 0 1 328.52 56.14
  C 320.51 50.22 309.98 45.72 300.25 50.15
  Q 297.11 51.58 295.87 55.32
  C 292.82 64.54 301.07 68.13 308.28 70.58
  C 327.37 77.09 344.40 82.24 346.73 105.65
  C 349.01 128.54 335.98 146.51 313.49 151.44
  C 294.17 155.67 273.88 150.27 257.71 139.35
  A 0.85 0.84 -59.2 0 1 257.44 138.26
  L 270.45 113.22
  A 0.40 0.40 0.0 0 1 271.07 113.11
  Q 282.77 123.91 298.18 125.23
  C 305.24 125.83 312.97 121.62 313.69 113.97
  Z"
/>
<path d="
  M 82.26 52.99
  L 82.24 149.17
  A 0.37 0.37 0.0 0 1 81.87 149.54
  L 51.27 149.56
  A 0.37 0.37 0.0 0 1 50.90 149.19
  L 50.92 24.98
  A 0.37 0.37 0.0 0 1 51.29 24.61
  L 120.23 24.82
  A 0.37 0.37 0.0 0 1 120.60 25.19
  L 120.80 52.30
  A 0.37 0.37 0.0 0 1 120.43 52.67
  L 82.63 52.62
  A 0.37 0.37 0.0 0 0 82.26 52.99
  Z"
/>
<rect x="174.45" y="24.67" width="31.14" height="124.90" rx="0.30"/>
<path d="
  M 449.61 56.91
  L 471.62 25.11
  Q 471.85 24.77 472.26 24.77
  L 508.79 24.79
  Q 510.09 24.79 509.35 25.86
  L 465.47 89.13
  A 5.13 5.12 62.5 0 0 464.55 92.06
  L 464.60 149.01
  A 0.62 0.61 90.0 0 1 463.99 149.63
  L 434.08 149.69
  Q 433.49 149.69 433.49 149.10
  Q 433.45 121.88 433.51 94.76
  C 433.51 91.95 433.36 89.77 431.67 87.34
  Q 410.09 56.41 388.71 25.36
  Q 388.32 24.78 389.02 24.78
  L 425.46 24.77
  A 1.99 1.98 -17.3 0 1 427.09 25.62
  L 448.79 56.91
  A 0.50 0.50 0.0 0 0 449.61 56.91
  Z"
/>
</g>
<ellipse fill="#28b83c" cx="0.00" cy="0.00" transform="translate(106.18,87.13) rotate(90.7)" rx="16.82" ry="16.44"/>
</svg>
