<?xml version="1.0" encoding="utf-8"?>
<!-- Generator: Adobe Illustrator 27.6.1, SVG Export Plug-In . SVG Version: 6.00 Build 0)  -->
<svg version="1.1" id="Layer_1" xmlns="http://www.w3.org/2000/svg" xmlns:xlink="http://www.w3.org/1999/xlink" x="0px"
	y="0px" viewBox="0 0 460 57" style="enable-background:new 0 0 460 57;" xml:space="preserve">
	<style type="text/css">
		.st0 {
			fill: #004AAC;
		}

		/* Dark Blue */
		.st1 {
			fill: #194FB5;
		}

		/* Deep Blue */
		.st2 {
			fill: #3152BB;
		}

		/* Steel Blue */
		.st3 {
			fill: #4056C0;
		}

		/* Slate Blue */
		.st4 {
			fill: #645BC9;
		}

		/* Mid Blue */
		.st5 {
			fill: #825FD2;
		}

		/* Sky Blue */
		.st6 {
			fill: #9463D8;
		}

		/* Light Blue */
		.st7 {
			fill: #AE69DD;
		}

		/* Soft Blue */
		.st8 {
			fill: #CA6BE6;
		}

		/* Bright Cyan */
	</style>
	<g id="title" transform="translate(0 0)">
		<path id="path722843" class="st0" d="M46.2,28.64v19.26c-4.24,3.44-9.51,5.11-15.9,5.11c-4.8,0-9.11-1.04-12.95-3.2
		s-6.87-5.11-9.11-8.87C6,37.2,4.96,33.04,4.96,28.4S6,19.61,8.24,15.86c2.16-3.76,5.19-6.71,9.03-8.87
		c3.84-2.08,8.23-3.2,13.03-3.2c3.52,0,6.71,0.56,9.59,1.6c2.88,1.04,5.51,2.72,7.91,5.03l2.56-2.72c-2.48-2.48-5.43-4.4-8.87-5.67
		s-7.19-2-11.27-2c-5.59,0-10.63,1.28-15.1,3.68C10.63,6.19,7.2,9.54,4.64,13.86c-2.56,4.32-3.76,9.19-3.76,14.55
		c0,5.43,1.2,10.23,3.76,14.55c2.56,4.32,5.99,7.75,10.47,10.15c4.48,2.48,9.43,3.68,15.02,3.68c3.84,0,7.51-0.56,11.03-1.84
		c3.52-1.2,6.47-2.96,8.95-5.35V28.64L46.2,28.64z" />
		<path id="path722845" class="st1" d="M104.26,26.17h-36.2v3.6h36.2V26.17z M104.26,0.43h-36.2v3.68h36.2V0.43z M68.05,52.7v3.68
		h36.2V52.7H68.05z" />
		<path id="path722847" class="st2"
			d="M142.05,0.43h-4.08l-25.73,55.94h4.4l23.34-51.47l23.42,51.47h4.4L142.05,0.43z" />
		<path id="path722849" class="st3" d="M207.43,36.8c4.16-1.2,7.43-3.28,9.67-6.31c2.24-3.04,3.44-6.71,3.44-11.19
		c0-5.83-2-10.47-5.99-13.83c-4-3.36-9.51-5.03-16.54-5.03h-20.06v3.68H198c5.91,0,10.47,1.36,13.67,4
		c3.12,2.64,4.72,6.39,4.72,11.19c0,4.88-1.6,8.63-4.72,11.27c-3.2,2.64-7.75,3.92-13.67,3.92h-20.06v21.9h4.08v-18.3H198
		c1.6,0,3.44-0.08,5.43-0.4l13.35,18.7h4.64L207.43,36.8z" />
		<path id="path722851" class="st4" d="M238.5,54.7c3.68,1.44,7.59,2.08,11.75,2.08c4.4,0,8.15-0.64,11.19-2
		c3.04-1.28,5.27-3.12,6.71-5.35c1.44-2.24,2.24-4.72,2.24-7.43c0-3.28-0.88-5.91-2.64-7.83c-1.76-1.92-3.84-3.44-6.23-4.4
		c-2.48-0.96-5.75-1.92-9.83-2.96c-3.68-0.88-6.63-1.76-8.71-2.56c-2.16-0.8-3.92-1.92-5.35-3.44c-1.44-1.44-2.16-3.44-2.16-5.99
		c0-3.28,1.28-5.99,4-8.07c2.64-2.08,6.55-3.12,11.75-3.12c2.56,0,5.19,0.4,7.91,1.2s5.19,2,7.43,3.52l1.52-3.28
		c-2.24-1.52-4.8-2.72-7.75-3.68c-3.04-0.88-6.07-1.36-9.11-1.36c-4.48,0-8.15,0.72-11.11,2c-2.96,1.36-5.11,3.2-6.55,5.43
		s-2.16,4.72-2.16,7.43c0,3.36,0.8,6.07,2.56,8.07c1.76,2,3.84,3.44,6.31,4.4c2.48,0.96,5.75,2,9.91,2.96
		c3.6,0.88,6.47,1.68,8.63,2.48c2.08,0.8,3.92,2,5.35,3.44c1.44,1.52,2.16,3.52,2.16,5.99c0,3.28-1.36,5.91-4.08,7.91
		c-2.72,2.08-6.79,3.04-12.07,3.04c-3.68,0-7.19-0.64-10.55-1.92c-3.36-1.28-5.99-3.04-7.91-5.11l-1.84,3.04
		C231.94,51.42,234.82,53.26,238.5,54.7L238.5,54.7z" />
		<path id="path722853" class="st5"
			d="M329.8,0.43h-4.08v25.73h-37.4V0.43h-4.08v55.94h4.08V29.76h37.4v26.61h4.08V0.43z" />
		<path id="path722855" class="st6" d="M349.33,0.43v55.94h4.08V0.43H349.33z" />
		<path id="path722857" class="st7"
			d="M372.9,0.43v3.68h35.8V0.43H372.9z M372.9,56.38h4.08v-24.7h31.73V28h-35.8V56.38z" />
		<path id="path722859" class="st8" d="M434.5,4.11v52.27h4.08V4.11h20.14V0.43h-44.36v3.68H434.5z" />
	</g>
</svg>